<svg width="1508" height="647" viewBox="0 0 1508 647" fill="none" xmlns="http://www.w3.org/2000/svg">
<path d="M133.174 318.437C151.874 325.397 170.834 336.987 179.704 356.447C187.104 372.647 188.674 392.527 188.754 410.377C188.844 429.607 188.214 448.707 187.884 467.907C187.744 476.073 188.091 482.52 188.924 487.247C197.574 535.977 238.254 560.647 285.914 540.087C316.724 526.807 332.784 481.337 295.954 462.877C295.899 462.85 295.837 462.839 295.776 462.847C295.715 462.856 295.657 462.882 295.611 462.922C295.565 462.963 295.532 463.017 295.517 463.076C295.501 463.136 295.504 463.199 295.524 463.257C303.434 485.597 290.984 501.857 269.044 506.297C259.804 508.157 248.834 509.157 240.074 506.907C213.184 499.997 206.724 468.197 214.634 445.347C223.174 420.647 252.764 404.957 276.594 399.727C324.604 389.187 374.094 406.077 401.584 447.807C408.884 458.897 411.954 474.507 413.734 487.457C424.194 563.387 364.424 620.477 296.554 638.987C221.174 659.537 141.434 635.377 98.6638 567.967C71.4638 525.097 64.0239 476.057 62.9239 426.127C62.5439 408.457 60.4539 391.467 58.8439 374.157C58.6039 371.59 58.0239 369.32 57.1039 367.347C49.5839 351.247 36.6439 342.777 19.9639 337.387C14.5372 335.633 11.1972 334.333 9.94386 333.487C-2.11614 325.287 3.99386 306.317 16.1939 301.587C18.4205 300.72 21.8539 300.357 26.4939 300.497C37.9272 300.85 49.3639 301.197 60.8039 301.537C63.0639 301.597 65.1539 301.3 67.0739 300.647C116.574 283.817 133.744 226.887 93.3739 189.697C93.1339 189.477 92.8505 189.373 92.5238 189.387C91.7038 189.417 91.0439 189.147 90.3739 189.147C65.8339 189.107 41.2939 189.11 16.7539 189.157C0.0138569 189.187 -7.21614 164.247 9.45386 157.567C11.4405 156.773 14.5305 156.377 18.7239 156.377C462.764 156.377 906.804 156.377 1350.84 156.377C1352.9 156.377 1354.78 156.02 1356.48 155.307C1386.11 142.957 1399.21 112.137 1387.52 82.0868C1376.83 54.6068 1351.31 36.1368 1321.66 36.4668C1303.35 36.6668 1279.31 45.7968 1275.62 66.4668C1273.96 75.7668 1277.22 85.7468 1282.8 93.2768C1283.06 93.6168 1283.24 93.5835 1283.35 93.1768C1289.32 71.5768 1313.35 63.4568 1332.13 74.2068C1350.26 84.5768 1349.31 105.297 1338.81 120.687C1333.91 127.867 1326.99 133.53 1318.05 137.677C1286.2 152.447 1234.02 147.087 1214.98 113.537C1200.79 88.5468 1207.7 59.5568 1227.07 39.4368C1243.88 21.9768 1265.07 10.5368 1288.7 5.12681C1328.27 -3.92319 1371.43 -1.03319 1409.75 14.1268C1439.01 25.6968 1464.54 46.6268 1473.98 77.6568C1475.2 81.6301 1475.91 87.8635 1476.13 96.3568C1476.83 123.297 1465.65 143.123 1442.61 155.837C1442.56 155.869 1442.52 155.918 1442.49 155.976C1442.47 156.034 1442.46 156.099 1442.48 156.16C1442.5 156.221 1442.53 156.275 1442.58 156.314C1442.63 156.353 1442.69 156.375 1442.75 156.377C1457.45 156.377 1472.13 156.377 1486.79 156.377C1491.71 156.377 1495.15 156.737 1497.09 157.457C1514.42 163.887 1507.25 189.247 1489.94 189.167C1473.9 189.087 1457.91 189.097 1441.98 189.197C1441.86 189.197 1441.75 189.243 1441.67 189.326C1441.58 189.408 1441.53 189.52 1441.53 189.637C1441.51 261.737 1441.5 333.817 1441.52 405.877C1441.52 413.527 1447.92 422.537 1456.22 423.307C1470.56 424.647 1476.88 453.377 1454.79 453.377C1372.96 453.377 1291.13 453.377 1209.3 453.377C1195.23 453.377 1193.88 432.407 1204.21 426.417C1212.02 421.887 1219.75 416.457 1219.75 406.787C1219.77 361.647 1219.77 316.48 1219.76 271.287C1219.76 271.178 1219.72 271.074 1219.64 270.997C1219.57 270.92 1219.46 270.877 1219.35 270.877C1202.15 270.877 1184.93 270.877 1167.67 270.877C1165.21 270.877 1162.99 271.24 1161.01 271.967C1125.46 285.077 1112.82 329.167 1117.37 362.817C1121.68 394.667 1141.68 418.137 1173.71 423.147C1181.43 424.357 1186.16 430.797 1185.24 438.317C1184.18 446.977 1176.66 452.697 1168.22 453.097C1103.23 456.177 1043.44 437.927 1032.27 364.207C1031.3 357.78 1030.92 351.42 1031.14 345.127C1032.62 303.307 1051.45 262.837 1088.65 241.507C1097.55 236.407 1106.96 232.943 1116.86 231.117C1121.36 230.29 1127.66 229.91 1135.76 229.977C1163.6 230.21 1191.43 230.233 1219.26 230.047C1219.58 230.047 1219.74 229.887 1219.74 229.567L1219.77 189.757C1219.77 189.337 1219.56 189.127 1219.14 189.127L850.494 189.177C850.007 189.177 849.764 189.42 849.764 189.907V219.357C849.764 219.79 849.964 219.92 850.364 219.747C886.794 203.837 928.684 205.727 962.444 226.697C989.374 243.417 1006.96 272.617 1006.96 304.617C1006.95 347.357 984.474 387.947 939.204 395.087C934.897 395.767 928.247 396.13 919.254 396.177C901.954 396.277 884.654 396.43 867.354 396.637C867.007 396.643 866.831 396.473 866.824 396.127C866.504 379.013 866.307 361.933 866.234 344.887C866.204 337.267 872.604 337.417 874.084 344.337C876.894 357.467 886.424 367.907 900.104 369.067C917.284 370.537 926.204 346.047 928.514 333.077C933.554 304.797 929.244 257.397 898.784 242.877C881.264 234.527 860.634 242.317 849.984 258.437C849.837 258.663 849.764 258.913 849.764 259.187V410.367C849.764 410.687 849.92 410.87 850.234 410.917C856.944 411.987 866.354 412.757 871.554 416.267C883.524 424.337 879.074 442.447 865.704 446.167C865.371 446.26 865.047 446.237 864.734 446.097C848.134 438.483 830.811 436.68 812.764 440.687C798.554 443.837 782.694 452.387 783.814 469.577C784.247 476.17 787.297 481.62 792.964 485.927C817.484 504.577 854.484 495.127 875.984 476.717C876.244 476.503 876.524 476.467 876.824 476.607C896.784 486.197 894.294 510.057 875.384 518.987C839.954 535.717 794.104 538.847 758.844 519.057C715.854 494.937 714.174 433.877 764.144 415.617C764.444 415.51 764.594 415.297 764.594 414.977L764.514 387.657C764.513 387.614 764.502 387.572 764.482 387.534C764.462 387.496 764.433 387.464 764.398 387.44C764.363 387.415 764.322 387.399 764.28 387.394C764.237 387.388 764.194 387.393 764.154 387.407C740.454 396.407 712.864 396.857 688.324 391.587C647.184 382.747 619.744 355.177 615.174 313.167C615.149 312.95 615.045 312.75 614.881 312.604C614.717 312.459 614.504 312.378 614.284 312.377H541.494C541.425 312.377 541.356 312.363 541.293 312.337C541.229 312.311 541.171 312.272 541.123 312.224C541.074 312.175 541.036 312.118 541.01 312.055C540.985 311.992 540.973 311.925 540.974 311.857L541.294 273.607C541.301 273.287 541.464 273.127 541.784 273.127H617.524C617.931 273.127 618.194 272.933 618.314 272.547C625.694 249.377 641.124 233.077 663.114 223.667C691.254 211.617 720.914 211.907 751.004 214.347C751.122 214.355 751.233 214.408 751.313 214.495C751.393 214.583 751.437 214.698 751.434 214.817L750.844 257.127C750.837 257.5 750.711 257.827 750.464 258.107C743.974 265.337 741.324 254.317 740.004 250.627C737.134 242.587 730.614 239.937 722.564 239.407C714.314 238.867 705.264 246.977 701.124 253.517C684.834 279.197 686.064 324.977 703.324 350.077C704.931 352.41 707.501 354.67 711.034 356.857C728.404 367.607 750.204 364.817 764.324 350.027C764.584 349.753 764.714 349.423 764.714 349.037L764.574 189.867C764.574 189.487 764.384 189.297 764.004 189.297L531.464 189.187C531.374 189.185 531.285 189.212 531.211 189.264C531.137 189.316 531.081 189.389 531.051 189.474C531.021 189.56 531.019 189.652 531.045 189.739C531.07 189.825 531.122 189.902 531.194 189.957C554.314 208.717 551.344 238.497 530.594 257.467C511.554 274.867 490.904 283.767 464.664 281.177C464.277 281.137 464.064 281.31 464.024 281.697L463.694 284.857C463.654 285.283 463.847 285.513 464.274 285.547C474.047 286.4 483.267 288.85 491.934 292.897C521.364 306.647 528.414 334.977 527.354 364.837C527.127 371.103 527.124 376.293 527.344 380.407C528.337 398.82 529.401 417.227 530.534 435.627C532.664 470.127 553.894 508.137 594.544 501.957C598.044 501.423 601.571 500.303 605.124 498.597C621.274 490.837 625.974 481.627 617.084 464.567C616.904 464.213 616.641 464.137 616.294 464.337C591.754 478.287 561.184 469.137 555.324 439.557C550.284 414.087 572.194 396.647 594.514 392.087C627.424 385.367 661.174 397.957 682.554 423.267C697.254 440.667 700.224 466.027 694.984 487.357C683.124 535.577 635.404 560.947 588.754 561.057C510.014 561.247 440.734 513.997 427.114 434.127C426.22 428.893 425.727 422.527 425.634 415.027C425.274 385.727 425.954 356.647 423.774 327.377C422.964 316.487 419.224 303.337 410.994 296.847C405.054 292.167 396.844 290.627 392.094 284.557C386.244 277.097 390.574 268.037 399.154 265.887C400.654 265.507 403.234 265.427 406.894 265.647C437.724 267.477 464.144 262.927 468.264 226.197C469.894 211.667 463.534 198.597 452.224 189.507C451.937 189.273 451.607 189.157 451.234 189.157L370.894 189.117C370.474 189.117 370.264 189.327 370.264 189.747V385.867C370.263 385.935 370.244 386.002 370.209 386.061C370.174 386.12 370.124 386.169 370.064 386.202C370.004 386.236 369.937 386.253 369.868 386.252C369.8 386.251 369.733 386.232 369.674 386.197C344.024 370.497 307.774 369.247 278.854 372.877C278.748 372.89 278.641 372.88 278.539 372.848C278.437 372.816 278.344 372.763 278.264 372.692C278.185 372.621 278.121 372.534 278.078 372.436C278.035 372.339 278.013 372.233 278.014 372.127V322.917C278.014 322.61 277.867 322.41 277.574 322.317C255.404 315.617 235.634 325.687 220.374 341.097C220.121 341.35 219.821 341.487 219.474 341.507L212.624 341.927C212.177 341.953 211.951 341.743 211.944 341.297L211.484 290.377C211.477 289.943 211.311 289.87 210.984 290.157C189.534 308.777 161.194 314.967 133.274 317.707C132.187 317.813 132.154 318.057 133.174 318.437ZM277.414 189.237L203.514 189.407C203.194 189.407 202.891 189.333 202.604 189.187C202.217 188.987 201.857 188.99 201.524 189.197C201.157 189.437 201.154 189.68 201.514 189.927C230.844 209.917 238.564 245.947 221.364 277.007C221.191 277.313 221.231 277.59 221.484 277.837C237.194 292.757 256.384 297.347 277.504 295.567C277.844 295.533 278.014 295.347 278.014 295.007V189.837C278.014 189.437 277.814 189.237 277.414 189.237ZM1307.26 411.847C1314.08 432.257 1354.32 430.267 1354.37 407.317C1354.44 374.91 1354.32 304.327 1354.02 195.567C1354.02 194.197 1354.49 191.697 1354.16 189.757C1354.1 189.357 1353.86 189.157 1353.46 189.157L1306.61 189.117C1306.52 189.117 1306.43 189.153 1306.37 189.216C1306.3 189.28 1306.26 189.367 1306.26 189.457C1306.26 260.223 1306.26 330.96 1306.27 401.667C1306.27 406.5 1306.6 409.893 1307.26 411.847Z" fill="#ED1C24"/>
<path d="M324.063 122.286C354.085 122.286 378.423 97.9486 378.423 67.9264C378.423 37.9042 354.085 13.5664 324.063 13.5664C294.041 13.5664 269.703 37.9042 269.703 67.9264C269.703 97.9486 294.041 122.286 324.063 122.286Z" fill="#ED1C24"/>
</svg>
